<?xml version="1.0" encoding="UTF-8"?>
<svg xmlns="http://www.w3.org/2000/svg" width="1024" height="1024" viewBox="0 0 1024 1024" style="background: transparent;"><path fill="#274532" d="m381.895 278.031 259.136.085.118 19.705c3.989.008 8.301-.068 12.26.102l-.012 17.958-12.285-.013-.06 68.653c41.177-27.594 96.967-48.349 146.914-48.851l.057 309.091c-15.35-.88-33.994-1.35-49.388-.27-58.355 4.093-113.366 24.171-163.256 54.235-22.692 13.674-43.02 28.813-64.184 44.469-5.231-3.282-14.764-10.989-20.161-14.958a868 868 0 0 0-36.712-25.231c-66.861-42.788-138.928-63.931-218.315-58.429l-.097-308.918c38.013.453 83.727 15.011 117.339 32.1a425 425 0 0 1 9.823 5.193c3.222 1.759 16.41 10.243 18.815 10.91l.102-67.987-12.197-.189c-.018-5.945.038-12.048-.062-17.978l12.275-.019z"/><path fill="#427aa1" d="M641.052 384.521c41.177-27.594 96.967-48.349 146.914-48.851l.057 309.091c-15.35-.88-33.994-1.35-49.388-.27-58.355 4.093-113.366 24.171-163.256 54.235-22.692 13.674-43.02 28.813-64.184 44.469-5.231-3.282-14.764-10.989-20.161-14.958a868 868 0 0 0-36.712-25.231c-66.861-42.788-138.928-63.931-218.315-58.429l-.097-308.918c38.013.453 83.727 15.011 117.339 32.1a425 425 0 0 1 9.823 5.193c3.222 1.759 16.41 10.243 18.815 10.91l-.005 178.141-.084 50.984c-.025 8.883-.315 18.843-.032 27.621 26.146 3.771 56.254 27.078 77.07 42.845a989 989 0 0 1 53.762 43.667c29.158-26.177 91.803-77.156 128.404-86.321l-.083-168.316.047-56.834c.004-9.933-.246-21.291.086-31.128"/><path fill="#ebf2fa" d="m406.039 315.837 210.83.151.14 324.579-69.705.183.037-22.5.048-22.253c.027-13.949 1.088-25.525-9.357-36.334-13.297-13.761-37.504-13.811-50.895-.258a31.7 31.7 0 0 0-8.144 14.066c-1.897 7.215-1.388 21.745-1.39 29.91q-.039 18.754.188 37.507l-71.713-.139z"/><path fill="#274532" d="m430.943 346.036 33.604.006c.155 11.949.044 24.104.031 36.072l-33.616-.027z"/><path fill="#274532" d="m494.665 346.035 33.277.018q.25 18.004.055 36.007-16.676.144-33.35-.013-.081-18.006.018-36.012"/><path fill="#274532" d="M431.014 482.949c10.893-.236 22.57-.055 33.519-.054.272 11.456.144 24.05.004 35.521a1831 1831 0 0 0-33.47-.036c-.236-11.59-.058-23.795-.053-35.431"/><path fill="#274532" d="M494.742 482.91c11.029-.122 22.262-.023 33.307-.033.148 4.522.497 32.56-.181 35.467a1767 1767 0 0 0-33.289-.046q-.031-17.695.163-35.388"/><path fill="#274532" d="m431.028 414.524 33.506-.012q.128 17.454-.059 34.908l-33.453-.033q-.118-17.431.006-34.863"/><path fill="#274532" d="m494.905 414.531 33.226-.056c.159 11.303.227 23.695-.087 34.956a2633 2633 0 0 0-33.256-.081c-.151-11.041-.387-23.839.117-34.819"/><path fill="#274532" d="M558.01 346.01q16.014-.052 32.026.06c.177 11.895.07 24.091.099 36.01l-32.114.042a1705 1705 0 0 1-.011-36.112"/><path fill="#274532" d="M557.982 482.903q16.024-.155 32.046.022.112 17.696.022 35.392-16.014-.15-32.027.071-.195-17.742-.041-35.485"/><path fill="#274532" d="m558.006 414.569 32.131.007c-.032 4.544.606 32.864-.621 34.636-10.512.121-20.976-.06-31.504.153q-.255-17.398-.006-34.796"/><path fill="#294a67" d="M235.974 656.53c17.016-.178 35.953 1.793 52.801 4.07 83.312 11.259 153.845 46.467 223.582 91.48 75.661-51.55 164.459-91.037 257.213-95.002 6.064-.259 12.238-.286 18.314-.383.293 8.288.077 17.798.084 26.18l.007 8.612c-76.22.511-156.1 22.179-223.858 56.664a460 460 0 0 0-32.415 18.357c-6.26 3.903-14.008 9.594-20.498 12.606-5.572-3.077-11.864-7.273-17.49-10.607a727 727 0 0 0-37.72-20.767c-64.365-32.404-147.844-56.377-220.015-56.623-.19-11.397-.055-23.178-.005-34.587"/><path fill="#274532" d="M512.213 206.273c1.853 1.571 9.319 13.804 11.456 17.021 6.911 1.513 15.021 2.083 22.466 3.62-3.352 4.646-12.038 13.447-16.296 17.988 1.46 7.639 3.216 15.007 4.998 22.578-5.352-1.561-16.913-7.073-22.345-9.514-3.693.073-17.341 7.4-22.86 9.296a634 634 0 0 1 5.202-22.222c-4.883-6.16-11.185-10.932-16.186-18.07 7.184-1.521 15.126-2.196 22.533-3.659 3.077-4.994 7.544-12.725 11.032-17.038"/></svg>